<svg width="24" height="24" viewBox="0 0 24 24" fill="none" xmlns="http://www.w3.org/2000/svg">
<g id="cheers 1" clip-path="url(#clip0_1_653)">
<g id="g1191">
<g id="g1193">
<g id="g1195">
<g id="g1201">
<path id="path1203" d="M13.1374 21.5492L19.7173 19.7856C20.2395 19.6461 20.553 19.1025 20.4122 18.5803L17.6524 8.27654C17.2884 6.91702 16.054 6.20598 14.8236 6.53555C14.13 5.81527 13.0749 5.48438 12.0412 5.76207C11.0632 6.02391 10.3418 6.76552 10.0614 7.66655" stroke="#FFA600" stroke-miterlimit="10" stroke-linecap="round" stroke-linejoin="round"/>
</g>
<g id="g1205">
<path id="path1207" d="M6.18815 10.6262L4.75579 10.2421C3.41512 9.88332 2.02392 10.6861 1.66377 12.027L0.55429 16.1694C0.195603 17.5104 0.99815 18.9018 2.34013 19.262L3.77118 19.6461" stroke="#FFA600" stroke-miterlimit="10" stroke-linecap="round" stroke-linejoin="round"/>
</g>
<g id="g1209">
<path id="path1211" d="M4.29072 17.7097L3.24498 17.4293C2.75866 17.2991 2.46367 16.7874 2.59394 16.301L3.49614 12.9333C3.62636 12.4469 4.13786 12.1506 4.62423 12.2821L5.67002 12.5612" stroke="#FFA600" stroke-miterlimit="10" stroke-linecap="round" stroke-linejoin="round"/>
</g>
<g id="g1213">
<path id="path1215" d="M6.3476 10.0282L10.9556 11.2628L10.6726 12.3193C10.5265 12.8655 10.8533 13.4318 11.3981 13.578C11.9442 13.7241 12.5103 13.3972 12.6565 12.851M12.9394 11.7958L12.3681 13.9301C12.1741 14.6517 12.6059 15.4 13.3274 15.5926C14.0489 15.7867 14.797 15.3548 14.9897 14.6331" stroke="#FFA600" stroke-miterlimit="10" stroke-linecap="round" stroke-linejoin="round"/>
</g>
<g id="g1217">
<path id="path1219" d="M5.3391 21.8216L4.28413 21.5385C3.76053 21.3977 3.44703 20.8555 3.58789 20.3318L6.34761 10.0282C6.71164 8.66995 7.94745 7.95759 9.17647 8.28722C9.87139 7.56815 10.9251 7.23731 11.9588 7.51505C12.9939 7.79147 13.7406 8.60484 13.9825 9.57633C15.2129 9.90591 15.9264 11.1392 15.5624 12.4974L12.8013 22.8024C12.6617 23.3247 12.1183 23.6384 11.5961 23.4975L9.40503 22.9114" stroke="#FFA600" stroke-miterlimit="10" stroke-linecap="round" stroke-linejoin="round"/>
</g>
<g id="g1221">
<path id="path1223" d="M23.4257 14.3421L23.4457 14.4165C23.8045 15.7588 23.0019 17.1502 21.6612 17.5091L20.2288 17.8932M17.8119 8.87328L19.2442 8.48924C20.5849 8.13036 21.9761 8.9331 22.3362 10.2754" stroke="#FFA600" stroke-miterlimit="10" stroke-linecap="round" stroke-linejoin="round"/>
</g>
<g id="g1225">
<path id="path1227" d="M19.7106 15.9568L20.755 15.6777C21.2413 15.5475 21.5376 15.0345 21.4075 14.5481L20.5052 11.1804C20.3737 10.694 19.8621 10.399 19.3758 10.5292L18.3314 10.8083" stroke="#FFA600" stroke-miterlimit="10" stroke-linecap="round" stroke-linejoin="round"/>
</g>
<g id="g1229">
<path id="path1231" d="M17.6524 8.27655L13.8935 9.28394" stroke="#FFA600" stroke-miterlimit="10" stroke-linecap="round" stroke-linejoin="round"/>
</g>
<g id="g1233">
<path id="path1235" d="M7.24448 3.66365L8.33137 5.53485" stroke="#FFA600" stroke-miterlimit="10" stroke-linecap="round" stroke-linejoin="round"/>
</g>
<g id="g1237">
<path id="path1239" d="M4.49933 6.01991L6.59211 6.57416" stroke="#FFA600" stroke-miterlimit="10" stroke-linecap="round" stroke-linejoin="round"/>
</g>
<g id="g1241">
<path id="path1243" d="M10.662 2.46092L10.0973 4.55005" stroke="#FFA600" stroke-miterlimit="10" stroke-linecap="round" stroke-linejoin="round"/>
</g>
<g id="g1245">
<path id="path1247" d="M19.1646 5.68906C19.8382 5.68906 20.3883 5.13884 20.3883 4.46501C20.3883 3.79123 19.8382 3.24237 19.1646 3.24237C18.4909 3.24237 17.9408 3.79123 17.9408 4.46501C17.9408 5.13884 18.4909 5.68906 19.1646 5.68906Z" stroke="#FFA600" stroke-miterlimit="10" stroke-linecap="round" stroke-linejoin="round"/>
</g>
<g id="g1249">
<path id="path1251" d="M14.6734 2.51404C15.2036 2.51404 15.6354 2.08213 15.6354 1.55188C15.6354 1.02294 15.2036 0.589678 14.6734 0.589678C14.1446 0.589678 13.7114 1.02294 13.7114 1.55188C13.7114 2.08213 14.1446 2.51404 14.6734 2.51404Z" stroke="#FFA600" stroke-miterlimit="10" stroke-linecap="round" stroke-linejoin="round"/>
</g>
<g id="g1253">
<path id="path1255" d="M2.47303 2.91544C3.14667 2.91544 3.69544 2.36658 3.69544 1.6928C3.69544 1.01897 3.14667 0.468749 2.47303 0.468749C1.7993 0.468749 1.24927 1.01897 1.24927 1.6928C1.24927 2.36658 1.7993 2.91544 2.47303 2.91544Z" stroke="#FFA600" stroke-miterlimit="10" stroke-linecap="round" stroke-linejoin="round"/>
</g>
<g id="g1257">
<path id="path1259" d="M1.87381 8.85736C2.40256 8.85736 2.83441 8.42414 2.83441 7.89516C2.83441 7.36491 2.40256 6.93295 1.87381 6.93295C1.34356 6.93295 0.911743 7.36491 0.911743 7.89516C0.911743 8.42414 1.34356 8.85736 1.87381 8.85736Z" stroke="#FFA600" stroke-miterlimit="10" stroke-linecap="round" stroke-linejoin="round"/>
</g>
<g id="g1261">
<path id="path1263" d="M7.36942 22.3652L7.37209 22.3665" stroke="#FFA600" stroke-miterlimit="10" stroke-linecap="round" stroke-linejoin="round"/>
</g>
<g id="g1265">
<path id="path1267" d="M22.877 12.307L22.8787 12.3087" stroke="#FFA600" stroke-miterlimit="10" stroke-linecap="round" stroke-linejoin="round"/>
</g>
</g>
</g>
</g>
</g>
<defs>
<clipPath id="clip0_1_653">
<rect width="24" height="24" fill="white"/>
</clipPath>
</defs>
</svg>
